<?xml version="1.0" encoding="utf-8"?>
<!-- Generator: Adobe Illustrator 19.1.0, SVG Export Plug-In . SVG Version: 6.00 Build 0)  -->
<svg version="1.1" id="Слой_1" xmlns="http://www.w3.org/2000/svg" xmlns:xlink="http://www.w3.org/1999/xlink" x="0px" y="0px"
	 viewBox="-208 382 194 30" style="enable-background:new -208 382 194 30;" xml:space="preserve">
<style type="text/css">
	.st0{fill:#FFFFFF;}
</style>
<g>
	<rect x="-208" y="382.2" class="st0" width="6.5" height="29.6"/>
	<polygon class="st0" points="-20.5,382.2 -20.5,382.2 -30.6,395.7 -30.6,395.7 -40.6,382.2 -40.6,382.2 -47.1,382.2 -47.1,411.8 
		-40.6,411.8 -40.6,392.3 -30.6,405.3 -30.5,405.3 -20.5,392.4 -20.5,411.8 -14,411.8 -14,382.2 	"/>
	<polygon class="st0" points="-92.1,382.2 -92.1,401 -105.3,382.2 -105.3,382.2 -112,382.2 -112,411.8 -105.5,411.8 -105.5,393 
		-92.2,411.8 -85.6,411.8 -85.6,382.2 	"/>
	<polygon class="st0" points="-181.5,382.2 -189.3,382.2 -200.7,397 -200.7,397.1 -189.3,411.8 -181.5,411.8 -193.2,397.1 	"/>
	<path class="st0" d="M-147.1,396.9c0-4.1,1.5-7.6,4.4-10.5c2.9-2.9,6.5-4.4,10.6-4.4c4.1,0,7.6,1.5,10.5,4.4
		c2.9,2.9,4.4,6.5,4.4,10.6c0,4.2-1.5,7.7-4.4,10.6c-3,2.9-6.5,4.4-10.7,4.4c-3.7,0-7-1.3-10-3.9
		C-145.5,405.3-147.1,401.5-147.1,396.9z M-140.7,396.9c0,2.6,0.9,4.7,2.6,6.3c1.7,1.7,3.7,2.5,5.9,2.5c2.4,0,4.5-0.8,6.1-2.5
		c1.7-1.7,2.5-3.8,2.5-6.2c0-2.5-0.8-4.5-2.5-6.2c-1.6-1.7-3.7-2.5-6.1-2.5c-2.4,0-4.4,0.8-6.1,2.5
		C-139.8,392.4-140.7,394.5-140.7,396.9z"/>
	<path class="st0" d="M-157.9,402.1c4.3-1.4,6.7-5.5,6.7-9.7c0-5.2-3.5-10.2-9.8-10.2h-15.5v29.6h6.4v-23.9h8.2c2.5,0,4.3,2,4.3,4.5
		c0,2.4-1.8,4.5-4.3,4.5h-7.7l11.5,14.9h7.8L-157.9,402.1z"/>
	<path class="st0" d="M-79.5,399.8v-17.6h6.4v17.4c0,4.1,2.9,6.2,6.7,6.2c3.9,0,6.7-2.1,6.7-6.2v-17.4h6.4v17.5
		c0,7.3-6.3,12.2-13.1,12.2C-73.2,412-79.5,407-79.5,399.8z"/>
</g>
</svg>
